<svg id="Layer_1" data-name="Layer 1" xmlns="http://www.w3.org/2000/svg" viewBox="0 0 595.28 841.89"><defs><style>.cls-1{fill:#ee6e23;}.cls-2{fill:#4754a5;}.cls-3{fill:#93acd9;}.cls-4{fill:#f49657;}.cls-5{fill:#fcbe85;}</style></defs><title>Shubham</title><path class="cls-1" d="M222.57,246.45a76.77,76.77,0,1,1-76.77-76.76A76.77,76.77,0,0,1,222.57,246.45Z"/><rect class="cls-2" x="185.87" y="54.77" width="242.49" height="44.44" rx="13.11"/><rect class="cls-3" x="275.71" y="163.69" width="278.52" height="17.55" rx="8.77"/><rect class="cls-3" x="275.71" y="214.24" width="278.52" height="17.55" rx="8.77"/><rect class="cls-3" x="275.71" y="261.79" width="278.52" height="17.55" rx="8.77"/><rect class="cls-3" x="275.71" y="308.45" width="184.31" height="17.55" rx="8.77"/><rect class="cls-3" x="69.03" y="395.3" width="218.74" height="17.55" rx="8.77"/><rect class="cls-3" x="69.03" y="437.45" width="218.74" height="17.55" rx="8.77"/><rect class="cls-3" x="69.03" y="480.6" width="143.5" height="17.55" rx="8.77"/><path class="cls-3" d="M-77.17,841.89s556.6-10.7,711.83-352.83V854.68H-73.09Z"/><rect class="cls-2" x="69.03" y="735.19" width="76.77" height="45.96" rx="10.21"/><rect class="cls-1" x="201.98" y="661.66" width="76.77" height="119.49" rx="18.64"/><rect class="cls-4" x="329.48" y="557.49" width="76.77" height="223.66" rx="18.05"/><rect class="cls-5" x="460.02" y="489.06" width="76.77" height="292.09" rx="18.47"/><path class="cls-5" d="M222.57,246.45h-68.2a8.57,8.57,0,0,1-8.57-8.57V169.69A76.77,76.77,0,0,1,222.57,246.45Z"/></svg>